HIERARCHY
ROOT Hips
{
  OFFSET 41.5765 102.804 -11.1443
  CHANNELS 6 Xposition Yposition Zposition Zrotation Xrotation Yrotation
  JOINT Chest
  {
    OFFSET 1.23234e-007 14.8421 1.27319e-009
    CHANNELS 6 Xposition Yposition Zposition Zrotation Xrotation Yrotation
    JOINT Neck
    {
      OFFSET 0.51659 29.8236 6.51843
      CHANNELS 6 Xposition Yposition Zposition Zrotation Xrotation Yrotation
      JOINT Head
      {
        OFFSET 1.16803e-007 7.47049 6.44171e-007
        CHANNELS 6 Xposition Yposition Zposition Zrotation Xrotation Yrotation
        End Site
        {
          OFFSET -4.32676e-008 16.2908 2.16786e-007
        }
      }
    }
    JOINT LeftCollar
    {
      OFFSET 6.64893 27.3161 3.27471
      CHANNELS 6 Xposition Yposition Zposition Zrotation Xrotation Yrotation
      JOINT LeftUpArm
      {
        OFFSET 10.8584 2.41798 -0.945791
        CHANNELS 6 Xposition Yposition Zposition Zrotation Xrotation Yrotation
        JOINT LeftLowArm
        {
          OFFSET 3.77631 -24.5904 -1.70468
          CHANNELS 6 Xposition Yposition Zposition Zrotation Xrotation Yrotation
          JOINT LeftHand
          {
            OFFSET 1.01026 -21.1231 1.74131
            CHANNELS 6 Xposition Yposition Zposition Zrotation Xrotation Yrotation
            End Site
            {
              OFFSET 1.17583e-006 -9.81266 -2.89439e-008
            }
          }
        }
      }
    }
    JOINT RightCollar
    {
      OFFSET -6.11406 27.2248 4.23427
      CHANNELS 6 Xposition Yposition Zposition Zrotation Xrotation Yrotation
      JOINT RightUpArm
      {
        OFFSET -10.4566 2.3285 -0.910794
        CHANNELS 6 Xposition Yposition Zposition Zrotation Xrotation Yrotation
        JOINT RightLowArm
        {
          OFFSET -3.86856 -25.191 -1.74633
          CHANNELS 6 Xposition Yposition Zposition Zrotation Xrotation Yrotation
          JOINT RightHand
          {
            OFFSET -1.04759 -20.6242 1.75213
            CHANNELS 6 Xposition Yposition Zposition Zrotation Xrotation Yrotation
            End Site
            {
              OFFSET -2.03487e-006 -9.50367 -4.31372e-006
            }
          }
        }
      }
    }
  }
  JOINT LeftUpLeg
  {
    OFFSET 9 -3.38008e-006 -5.22998e-009
    CHANNELS 6 Xposition Yposition Zposition Zrotation Xrotation Yrotation
    JOINT LeftLowLeg
    {
      OFFSET -0.575 -51.431 3.90177
      CHANNELS 6 Xposition Yposition Zposition Zrotation Xrotation Yrotation
      JOINT LeftFoot
      {
        OFFSET 2.13082e-007 -43.5882 -3.90177
        CHANNELS 6 Xposition Yposition Zposition Zrotation Xrotation Yrotation
        End Site
        {
          OFFSET 7.44796e-007 -6.93413 15.0046
        }
      }
    }
  }
  JOINT RightUpLeg
  {
    OFFSET -9 6.86154e-007 -3.19541e-009
    CHANNELS 6 Xposition Yposition Zposition Zrotation Xrotation Yrotation
    JOINT RightLowLeg
    {
      OFFSET 0.575 -51.4311 3.90177
      CHANNELS 6 Xposition Yposition Zposition Zrotation Xrotation Yrotation
      JOINT RightFoot
      {
        OFFSET -7.46079e-007 -43.5882 -3.90177
        CHANNELS 6 Xposition Yposition Zposition Zrotation Xrotation Yrotation
        End Site
        {
          OFFSET 4.66716e-007 -6.93413 15.0046
        }
      }
    }
  }
}
MOTION
Frames:	5
Frame Time:	0.0333333
41.5765 102.804 -11.1443 0.543361 0.000550556 -0.521798 1.23234e-007 14.8421 1.27319e-009 -0.358936 -8.25964 -2.17014 0.51659 29.8236 6.51843 -0.632981 9.60957 -0.368592 1.16803e-007 7.47049 6.44171e-007 -0.147291 0.283907 0.0233174 6.64893 27.3161 3.27471 -2.94784 5.93879 -4.20517 10.8584 2.41798 -0.945791 68.0144 9.04126 52.059 3.77631 -24.5904 -1.70468 15.516 -10.6635 -18.846 1.01026 -21.1231 1.74131 8.88368 9.08364 0.630704 -6.11406 27.2248 4.23427 -1.96452 7.32629 3.42623 -10.4566 2.3285 -0.910794 -67.1715 -3.20927 -48.5941 -3.86856 -25.191 -1.74633 -16.4927 -3.19256 59.3923 -1.04759 -20.6242 1.75213 -5.88485 8.78057 -0.684446 9 -3.38008e-006 -5.22998e-009 2.87616 0.633666 9.34182 -0.575 -51.431 3.90177 -2.96185 2.91743 -5.87361 2.13082e-007 -43.5882 -3.90177 1.16408 0.540208 -0.117899 -9 6.86154e-007 -3.19541e-009 -5.66103 0.454851 -15.4497 0.575 -51.4311 3.90177 1.12807 2.99052 -0.519429 -7.46079e-007 -43.5882 -3.90177 -3.95364 0.0443367 0.354506 
41.5468 102.809 -11.1355 0.510174 -0.0340795 -0.562545 1.23234e-007 14.8421 1.27319e-009 -0.336918 -8.2327 -2.08633 0.51659 29.8236 6.51843 -0.598214 9.62976 -0.357976 1.16803e-007 7.47049 6.44171e-007 -0.282031 0.279153 0.0719841 6.64893 27.3161 3.27471 -2.94784 5.93879 -4.20517 10.8584 2.41798 -0.945791 68.0131 9.04023 52.2389 3.77631 -24.5904 -1.70468 15.5803 -10.7158 -19.0621 1.01026 -21.1231 1.74131 8.83877 8.93646 0.630719 -6.11406 27.2248 4.23427 -1.96452 7.32629 3.42623 -10.4566 2.3285 -0.910794 -67.0805 -3.1621 -48.6126 -3.86856 -25.191 -1.74633 -16.5028 -3.21261 59.4679 -1.04759 -20.6242 1.75213 -5.89836 8.86336 -0.686371 9 -3.38008e-006 -5.22998e-009 2.94514 0.709784 9.42417 -0.575 -51.431 3.90177 -3.03311 2.85103 -5.88741 2.13082e-007 -43.5882 -3.90177 1.21296 0.512231 -0.122839 -9 6.86154e-007 -3.19541e-009 -5.6304 0.504016 -15.4626 0.575 -51.4311 3.90177 1.18189 2.96228 -0.485593 -7.46079e-007 -43.5882 -3.90177 -4.00873 -0.093901 0.356714 
41.5398 102.807 -11.1961 0.455515 -0.19601 -0.448918 1.23234e-007 14.8421 1.27319e-009 -0.207746 -8.12422 -2.19076 0.51659 29.8236 6.51843 -0.986202 9.92949 -0.19178 1.16803e-007 7.47049 6.44171e-007 -0.0163422 0.0221218 0.0301442 6.64893 27.3161 3.27471 -2.94784 5.93879 -4.20517 10.8584 2.41798 -0.945791 67.8737 9.00686 52.0558 3.77631 -24.5904 -1.70468 15.5294 -10.7068 -18.6608 1.01026 -21.1231 1.74131 9.00697 9.08215 0.636555 -6.11406 27.2248 4.23427 -1.96452 7.32629 3.42623 -10.4566 2.3285 -0.910794 -67.0759 -3.32636 -48.6204 -3.86856 -25.191 -1.74633 -16.5382 -3.22861 59.0354 -1.04759 -20.6242 1.75213 -6.36161 8.80554 -0.706451 9 -3.38008e-006 -5.22998e-009 3.0107 0.771496 9.44313 -0.575 -51.431 3.90177 -3.04342 2.96168 -6.01787 2.13082e-007 -43.5882 -3.90177 1.26946 0.506765 -0.128641 -9 6.86154e-007 -3.19541e-009 -5.56864 0.670679 -15.4649 0.575 -51.4311 3.90177 1.18945 2.93483 -0.63009 -7.46079e-007 -43.5882 -3.90177 -3.99483 -0.13842 0.354583 
41.5262 102.801 -11.1863 0.427648 -0.284608 -0.444153 1.23234e-007 14.8421 1.27319e-009 -0.176292 -7.97492 -2.1243 0.51659 29.8236 6.51843 -0.745535 9.92539 -0.299713 1.16803e-007 7.47049 6.44171e-007 -0.0766429 -0.0412165 0.0341147 6.64893 27.3161 3.27471 -2.94784 5.93879 -4.20517 10.8584 2.41798 -0.945791 67.8077 8.93469 52.3466 3.77631 -24.5904 -1.70468 15.5995 -10.8933 -17.887 1.01026 -21.1231 1.74131 8.98376 9.31348 0.631393 -6.11406 27.2248 4.23427 -1.96452 7.32629 3.42623 -10.4566 2.3285 -0.910794 -67.0574 -3.26423 -48.6664 -3.86856 -25.191 -1.74633 -16.5557 -3.24075 58.8209 -1.04759 -20.6242 1.75213 -5.9446 8.94366 -0.689462 9 -3.38008e-006 -5.22998e-009 3.04247 0.832701 9.44296 -0.575 -51.431 3.90177 -3.03256 3.02743 -6.07621 2.13082e-007 -43.5882 -3.90177 1.31031 0.459425 -0.132569 -9 6.86154e-007 -3.19541e-009 -5.54261 0.823154 -15.4743 0.575 -51.4311 3.90177 1.23271 2.81104 -0.602594 -7.46079e-007 -43.5882 -3.90177 -4.01122 -0.116285 0.356463 
41.5203 102.808 -11.3122 0.510489 -0.27683 -0.470855 1.23234e-007 14.8421 1.27319e-009 -0.262133 -8.0624 -2.05826 0.51659 29.8236 6.51843 -0.651179 10.0852 -0.314631 1.16803e-007 7.47049 6.44171e-007 -0.137208 -0.0646355 0.070124 6.64893 27.3161 3.27471 -2.94784 5.93879 -4.20517 10.8584 2.41798 -0.945791 67.7349 8.70511 52.6702 3.77631 -24.5904 -1.70468 15.6928 -11.1015 -17.1173 1.01026 -21.1231 1.74131 9.51874 9.7247 0.647281 -6.11406 27.2248 4.23427 -1.96452 7.32629 3.42623 -10.4566 2.3285 -0.910794 -66.975 -3.35927 -48.5398 -3.86856 -25.191 -1.74633 -16.5277 -3.22104 58.8127 -1.04759 -20.6242 1.75213 -6.1505 9.05432 -0.70012 9 -3.38008e-006 -5.22998e-009 2.94635 0.785821 9.38346 -0.575 -51.431 3.90177 -2.99437 2.94138 -5.97655 2.13082e-007 -43.5882 -3.90177 1.18343 0.662337 -0.120517 -9 6.86154e-007 -3.19541e-009 -5.69908 0.552284 -15.6022 0.575 -51.4311 3.90177 1.29459 3.2134 -0.526597 -7.46079e-007 -43.5882 -3.90177 -3.94166 -0.0753256 0.351107 
